<svg xmlns="http://www.w3.org/2000/svg" viewBox="0 0 100 100">
  <defs>
    <linearGradient gradientTransform="rotate(25)" id="grad" x1="0%" y1="0%" x2="100%" y2="0%">
      <stop offset="0%" stop-color="#30223A" stop-opacity="1"/>
      <stop offset="100%" stop-color="#F13800" stop-opacity="1"/>
    </linearGradient>
  </defs>
  <g fill="url(#grad)" transform="translate(3, 3) scale(0.94)">
    <path d="M33.092 13a1.69 1.69 0 00-1.69 1.69v5.134h3.38v-5.133A1.69 1.69 0 0033.093 13zm6.763 0a1.69 1.69 0 00-1.69 1.69v5.134h3.381v-5.133A1.69 1.69 0 0039.856 13zm6.764 0a1.69 1.69 0 00-1.691 1.69v5.134h3.382v-5.133A1.69 1.69 0 0046.619 13zm6.763 0a1.69 1.69 0 00-1.69 1.69v5.134h3.38v-5.133A1.69 1.69 0 0053.383 13zm6.763 0a1.69 1.69 0 00-1.69 1.69v5.134h1.04l2.341-2.342v-2.791A1.69 1.69 0 0060.146 13zm13.914 1.7a11.242 11.242 0 00-7.951 3.292L17.992 66.108a11.218 11.218 0 000 15.9 11.218 11.218 0 0015.9 0l48.116-48.115a11.218 11.218 0 000-15.9 11.24 11.24 0 00-7.95-3.294zm-43.05 8.506a7.78 7.78 0 00-7.804 7.805v25.102l32.907-32.907zm1.19 5.632a3.36 3.36 0 110 6.723 3.362 3.362 0 010-6.723zM14.691 31.4a1.69 1.69 0 100 3.382h5.133V31.4zm0 6.764a1.69 1.69 0 100 3.381h5.133v-3.381zm67.83 0l-2.345 2.344v1.037h5.133a1.69 1.69 0 100-3.381zM50 41.02a2.728 2.728 0 011.929 4.66A2.73 2.73 0 1150 41.02zm26.793 2.87L43.89 76.794h25.1a7.778 7.778 0 007.804-7.804zM14.69 44.927a1.69 1.69 0 100 3.382h5.133v-3.382zm65.485 0v3.382h5.133a1.69 1.69 0 100-3.382zm-36.427 2.344a2.73 2.73 0 110 5.46 2.73 2.73 0 010-5.46zm12.502 0a2.73 2.73 0 110 5.46 2.73 2.73 0 010-5.46zm-41.56 4.42a1.69 1.69 0 100 3.381h5.133V51.69zm65.485 0v3.381h5.133a1.69 1.69 0 100-3.382zM50 53.521a2.728 2.728 0 011.93 4.66 2.73 2.73 0 11-1.93-4.66zm-35.31 4.932a1.69 1.69 0 100 3.381h2.793l2.34-2.34v-1.041zm65.486 0v3.381h5.133a1.69 1.69 0 100-3.381zm0 6.763V68.6h5.133a1.69 1.69 0 100-3.382zM40.508 80.176l-2.343 2.343v2.79a1.69 1.69 0 103.381 0v-5.133zm4.42 0v5.133a1.69 1.69 0 103.382 0v-5.133zm6.763 0v5.133a1.69 1.69 0 103.382 0v-5.133zm6.764 0v5.133a1.69 1.69 0 103.381 0v-5.133zm6.763 0v5.133a1.69 1.69 0 103.382 0v-5.133z"/>
  </g>
</svg>
